<svg width="21" height="21" viewBox="0 0 21 21" fill="none" xmlns="http://www.w3.org/2000/svg">
<g clip-path="url(#clip0_97_561)">
<g clip-path="url(#clip1_97_561)">
<g clip-path="url(#clip2_97_561)">
<mask id="mask0_97_561" style="mask-type:luminance" maskUnits="userSpaceOnUse" x="0" y="0" width="21" height="21">
<path d="M20.6399 0.373047H0.639893V20.373H20.6399V0.373047Z" fill="white"/>
</mask>
<g mask="url(#mask0_97_561)">
<mask id="mask1_97_561" style="mask-type:luminance" maskUnits="userSpaceOnUse" x="0" y="0" width="21" height="21">
<path d="M10.6391 20.373C16.162 20.373 20.6391 15.8959 20.6391 10.373C20.6391 4.8502 16.162 0.373047 10.6391 0.373047C5.1163 0.373047 0.63916 4.8502 0.63916 10.373C0.63916 15.8959 5.1163 20.373 10.6391 20.373Z" fill="white"/>
</mask>
<g mask="url(#mask1_97_561)">
<path d="M10.6391 0.373047H20.6391V2.87305L19.3891 4.12305L20.6391 5.37305V7.87305L19.3891 9.12305L20.6391 10.373V12.873L19.3891 14.123L20.6391 15.373V17.873L10.6391 19.123L0.63916 17.873V15.373L1.88916 14.123L0.63916 12.873V10.373L10.6391 0.373047Z" fill="#EEEEEE"/>
<path d="M9.38914 2.87305H20.6391V5.37305H9.38914V2.87305ZM9.38914 7.87305H20.6391V10.373H10.6391L9.38914 7.87305ZM0.63916 12.873H20.6391V15.373H0.63916V12.873ZM0.63916 17.873H20.6391V20.373H0.63916V17.873Z" fill="#D80027"/>
<path d="M0.63916 0.373047H10.6391V10.373H0.63916V0.373047Z" fill="#0052B4"/>
<path d="M7.94383 9.86524L10.1704 8.26366H7.43603L9.6626 9.86524L8.80322 7.24805L7.94383 9.86524ZM4.77979 9.86524L7.00633 8.26366H4.27197L6.49853 9.86524L5.63914 7.24805L4.77979 9.86524ZM1.61572 9.86524L3.84228 8.26366H1.10791L3.33447 9.86524L2.47509 7.24805L1.61572 9.86524ZM7.94383 6.70116L10.1704 5.09962H7.43603L9.6626 6.70116L8.80322 4.08399L7.94383 6.70116ZM4.77979 6.70116L7.00633 5.09962H4.27197L6.49853 6.70116L5.63914 4.08399L4.77979 6.70116ZM1.61572 6.70116L3.84228 5.09962H1.10791L3.33447 6.70116L2.47509 4.08399L1.61572 6.70116ZM7.94383 3.49805L10.1704 1.89649H7.43603L9.6626 3.49805L8.80322 0.880859L7.94383 3.49805ZM4.77979 3.49805L7.00633 1.89649H4.27197L6.49853 3.49805L5.63914 0.880859L4.77979 3.49805ZM1.61572 3.49805L3.84228 1.89649H1.10791L3.33447 3.49805L2.47509 0.880859L1.61572 3.49805Z" fill="#EEEEEE"/>
</g>
</g>
</g>
</g>
</g>
<defs>
<clipPath id="clip0_97_561">
<rect width="20" height="20" fill="white" transform="translate(0.639893 0.373047)"/>
</clipPath>
<clipPath id="clip1_97_561">
<rect width="20" height="20" fill="white" transform="translate(0.639893 0.373047)"/>
</clipPath>
<clipPath id="clip2_97_561">
<rect width="20" height="20" fill="white" transform="translate(0.639893 0.373047)"/>
</clipPath>
</defs>
</svg>
