<svg width="25" height="25" viewBox="0 0 25 25" fill="none" xmlns="http://www.w3.org/2000/svg">
<path d="M25 21.25V23.75C25 24.0885 24.8969 24.3815 24.6908 24.6289C24.4846 24.8763 24.2405 25 23.9583 25H1.04167C0.759549 25 0.515408 24.8763 0.309245 24.6289C0.103082 24.3815 0 24.0885 0 23.75V21.25C0 20.9115 0.103082 20.6185 0.309245 20.3711C0.515408 20.1237 0.759549 20 1.04167 20H23.9583C24.2405 20 24.4846 20.1237 24.6908 20.3711C24.8969 20.6185 25 20.9115 25 21.25ZM25 11.25V13.75C25 14.0885 24.8969 14.3815 24.6908 14.6289C24.4846 14.8763 24.2405 15 23.9583 15H1.04167C0.759549 15 0.515408 14.8763 0.309245 14.6289C0.103082 14.3815 0 14.0885 0 13.75V11.25C0 10.9115 0.103082 10.6185 0.309245 10.3711C0.515408 10.1237 0.759549 10 1.04167 10H23.9583C24.2405 10 24.4846 10.1237 24.6908 10.3711C24.8969 10.6185 25 10.9115 25 11.25ZM25 1.25V3.75C25 4.08854 24.8969 4.38151 24.6908 4.62891C24.4846 4.8763 24.2405 5 23.9583 5H1.04167C0.759549 5 0.515408 4.8763 0.309245 4.62891C0.103082 4.38151 0 4.08854 0 3.75V1.25C0 0.911458 0.103082 0.61849 0.309245 0.371094C0.515408 0.123698 0.759549 0 1.04167 0H23.9583C24.2405 0 24.4846 0.123698 24.6908 0.371094C24.8969 0.61849 25 0.911458 25 1.25Z" fill="#696969"/>
</svg>
