<svg width="33" height="30" viewBox="0 0 33 30" fill="none" xmlns="http://www.w3.org/2000/svg">
<g clip-path="url(#clip0_1_318)">
<g clip-path="url(#clip1_1_318)">
<path d="M22.0334 12.1149V3.42064C22.0334 1.53635 20.5128 0.015686 18.6285 0.015686H4.38054C2.49625 0.015686 0.975586 1.53635 0.975586 3.42064V12.1479C0.975586 13.5033 1.86815 14.6603 3.12435 15.024C3.28964 15.057 3.38881 15.2223 3.38881 15.3876V17.7678C3.38881 18.0653 3.52104 18.3959 3.75244 18.5942C3.95079 18.7925 4.24831 18.8917 4.51278 18.8917C4.8103 18.8917 5.10782 18.7595 5.30616 18.5611L8.57889 15.2884C8.64501 15.2223 8.74418 15.1562 8.84335 15.1562H18.9921C20.6781 15.1562 22.0334 13.8008 22.0334 12.1149ZM12.3475 11.4206C12.3475 11.8835 11.9508 12.2801 11.488 12.2801H11.0582C10.5954 12.2801 10.1987 11.8835 10.1987 11.4206C10.1987 10.9578 10.5954 10.5611 11.0582 10.5611H11.488C11.9508 10.5611 12.3475 10.9578 12.3475 11.4206ZM14.2318 7.15618C13.9012 7.61899 13.5045 7.94957 13.0086 8.21403C12.7442 8.37932 12.5458 8.57767 12.4467 8.80907C12.3805 8.94131 12.3475 9.13965 12.3144 9.338C12.3144 9.50329 12.1491 9.63552 11.9838 9.63552H10.4962C10.2979 9.63552 10.1326 9.47023 10.1657 9.27188C10.1987 8.84213 10.2979 8.54461 10.4632 8.28015C10.6615 7.98263 11.0582 7.65205 11.6202 7.25536C11.9177 7.09007 12.1161 6.85866 12.2814 6.5942C12.4467 6.32974 12.5128 6.03222 12.5128 5.66858C12.5128 5.30494 12.4136 5.04048 12.2153 4.80907C12.0169 4.61073 11.7524 4.4785 11.3888 4.4785C11.0913 4.4785 10.8599 4.57767 10.6615 4.74296C10.5293 4.84213 10.4632 5.00742 10.3971 5.17271C10.331 5.37106 10.1326 5.53635 9.90121 5.50329L8.51277 5.47023C8.34749 5.47023 8.21525 5.30494 8.21525 5.13965C8.28137 4.41238 8.54583 3.8504 9.0417 3.4537C9.60368 3.02395 10.3971 2.79255 11.3227 2.79255C12.3475 2.79255 13.1409 3.05701 13.7029 3.55288C14.2979 4.04874 14.5624 4.74296 14.5624 5.63552C14.7276 6.1975 14.5624 6.69337 14.2318 7.15618Z" fill="white"/>
<path d="M29.9673 10.2967H24.6119C24.3805 10.2967 24.2152 10.462 24.2152 10.6934V11.7182C24.2152 14.7926 21.7028 17.305 18.6285 17.305H12.3144C12.083 17.305 11.9177 17.4702 11.9177 17.7017V22.0322C11.9177 23.9165 13.4384 25.4372 15.3227 25.4372H25.0747C25.1739 25.4372 25.2731 25.4702 25.3392 25.5694L28.6119 28.8421C28.8103 29.0405 29.1078 29.1727 29.4053 29.1727C29.7028 29.1727 29.9673 29.0736 30.1657 28.8752C30.3971 28.6769 30.5293 28.3463 30.5293 28.0488V25.6686C30.5293 25.5033 30.6285 25.338 30.7938 25.305C32.0169 24.9083 32.9425 23.7843 32.9425 22.4289V13.305C32.9756 11.6521 31.6202 10.2967 29.9673 10.2967Z" fill="white"/>
</g>
</g>
<defs>
<clipPath id="clip0_1_318">
<rect width="32" height="29.16" fill="white" transform="translate(0.975586 0.0141907)"/>
</clipPath>
<clipPath id="clip1_1_318">
<rect width="32" height="29.157" fill="white" transform="translate(0.975586 0.015686)"/>
</clipPath>
</defs>
</svg>
