<svg width="33" height="35" viewBox="0 0 33 35" fill="none" xmlns="http://www.w3.org/2000/svg">
<g clip-path="url(#clip0_1_323)">
<g clip-path="url(#clip1_1_323)">
<g clip-path="url(#clip2_1_323)">
<path d="M30.4435 13.3204H6.06987C4.68501 13.3204 3.5425 14.4629 3.5425 15.8478V31.9468C3.5425 33.3317 4.68501 34.4742 6.06987 34.4742H30.4435C31.8283 34.4742 32.9709 33.3317 32.9709 31.9468V15.8478C32.9709 14.4975 31.8976 13.3204 30.4435 13.3204ZM16.1794 23.0837H6.93541C6.34685 23.0837 5.93139 22.6682 5.93139 22.0797C5.93139 21.4911 6.34685 21.0756 6.93541 21.0756H16.2486C16.8372 21.0756 17.2526 21.4911 17.2526 22.0797C17.1834 22.6336 16.7333 23.0837 16.1794 23.0837ZM16.1794 18.0289H6.93541C6.34685 18.0289 5.93139 17.6135 5.93139 17.0249C5.93139 16.4363 6.34685 16.0209 6.93541 16.0209H16.2486C16.8372 16.0209 17.2526 16.4363 17.2526 17.0249C17.1834 17.5096 16.7333 18.0289 16.1794 18.0289ZM21.2341 31.8083C20.0916 31.8083 19.1568 30.8735 19.1568 29.731C19.1568 28.5885 20.0916 27.6537 21.2341 27.6537C22.3766 27.6537 23.3114 28.5885 23.3114 29.731C23.3114 30.8735 22.3766 31.8083 21.2341 31.8083ZM28.5047 31.8083C27.3622 31.8083 26.4274 30.8735 26.4274 29.731C26.4274 28.5885 27.3622 27.6537 28.5047 27.6537C29.6472 27.6537 30.582 28.5885 30.582 29.731C30.582 30.8735 29.6472 31.8083 28.5047 31.8083ZM30.4435 11.1739C31.032 11.1739 31.5167 11.2431 31.9668 11.4508C32.1053 11.5201 32.2438 11.3816 32.2438 11.1739L30.7897 7.12313C30.6512 6.84615 30.3742 6.6038 30.0626 6.77691L18.7068 10.8276C18.4644 10.8969 18.5683 11.2431 18.776 11.2431H30.4781L30.4435 11.1739ZM2.19226 13.2511C3.0578 11.9355 4.44266 11.1739 6.06987 11.1739H8.38952L29.0932 3.90332C29.3702 3.76483 29.6126 3.48786 29.4394 3.17626L28.7816 1.3067C28.5047 0.441158 27.466 -0.0781655 26.6351 0.302672L2.12301 8.95807C1.25747 9.23504 0.738149 10.2737 1.11899 11.1046L1.74218 12.9742C1.74218 13.1127 1.9499 13.2511 2.19226 13.2511Z" fill="#9F9FAD"/>
</g>
</g>
</g>
<defs>
<clipPath id="clip0_1_323">
<rect width="32" height="34.31" fill="white" transform="translate(0.975586 0.164185)"/>
</clipPath>
<clipPath id="clip1_1_323">
<rect width="32" height="34.31" fill="white" transform="translate(0.975586 0.164185)"/>
</clipPath>
<clipPath id="clip2_1_323">
<rect width="31.9904" height="34.31" fill="white" transform="translate(0.980469 0.164185)"/>
</clipPath>
</defs>
</svg>
