<svg width="32" height="30" viewBox="0 0 32 30" fill="none" xmlns="http://www.w3.org/2000/svg">
<mask id="mask0_2410_12" style="mask-type:luminance" maskUnits="userSpaceOnUse" x="0" y="0" width="32" height="30">
<path d="M32 0H0V29.16H32V0Z" fill="white"/>
</mask>
<g mask="url(#mask0_2410_12)">
<mask id="mask1_2410_12" style="mask-type:luminance" maskUnits="userSpaceOnUse" x="0" y="0" width="32" height="30">
<path d="M32 0.00149536H0V29.1585H32V0.00149536Z" fill="white"/>
</mask>
<g mask="url(#mask1_2410_12)">
<path d="M21.0578 12.1007V3.40645C21.0578 1.52216 19.5372 0.00149536 17.6529 0.00149536H3.40495C1.52066 0.00149536 0 1.52216 0 3.40645V12.1337C0 13.4891 0.892564 14.6461 2.14876 15.0098C2.31405 15.0428 2.41322 15.2081 2.41322 15.3734V17.7536C2.41322 18.0511 2.54545 18.3817 2.77685 18.58C2.9752 18.7783 3.27272 18.8775 3.53719 18.8775C3.83471 18.8775 4.13223 18.7453 4.33057 18.5469L7.6033 15.2742C7.66942 15.2081 7.76859 15.142 7.86776 15.142H18.0165C19.7025 15.142 21.0578 13.7866 21.0578 12.1007ZM11.3719 11.4064C11.3719 11.8693 10.9752 12.2659 10.5124 12.2659H10.0826C9.61981 12.2659 9.22311 11.8693 9.22311 11.4064C9.22311 10.9436 9.61981 10.5469 10.0826 10.5469H10.5124C10.9752 10.5469 11.3719 10.9436 11.3719 11.4064ZM13.2562 7.14199C12.9256 7.6048 12.5289 7.93538 12.033 8.19984C11.7686 8.36513 11.5702 8.56348 11.4711 8.79488C11.4049 8.92712 11.3719 9.12546 11.3388 9.32381C11.3388 9.4891 11.1735 9.62133 11.0082 9.62133H9.52061C9.32231 9.62133 9.15701 9.45604 9.19011 9.25769C9.22311 8.82794 9.32231 8.53042 9.48761 8.26596C9.68591 7.96844 10.0826 7.63786 10.6446 7.24117C10.9421 7.07588 11.1405 6.84447 11.3058 6.58001C11.4711 6.31555 11.5372 6.01803 11.5372 5.65439C11.5372 5.29075 11.438 5.02629 11.2397 4.79488C11.0413 4.59654 10.7768 4.46431 10.4132 4.46431C10.1157 4.46431 9.88431 4.56348 9.68591 4.72877C9.55371 4.82794 9.48761 4.99323 9.42151 5.15852C9.35541 5.35687 9.15701 5.52216 8.92562 5.4891L7.53718 5.45604C7.3719 5.45604 7.23966 5.29075 7.23966 5.12546C7.30578 4.39819 7.57024 3.83621 8.06611 3.43951C8.62809 3.00976 9.42151 2.77836 10.3471 2.77836C11.3719 2.77836 12.1653 3.04282 12.7273 3.53869C13.3223 4.03455 13.5868 4.72877 13.5868 5.62133C13.752 6.18331 13.5868 6.67918 13.2562 7.14199Z" fill="#9F9FAD"/>
<path d="M28.9917 10.2825H23.6363C23.4049 10.2825 23.2396 10.4478 23.2396 10.6792V11.704C23.2396 14.7784 20.7272 17.2908 17.6529 17.2908H11.3388C11.1074 17.2908 10.9421 17.456 10.9421 17.6875V22.018C10.9421 23.9023 12.4628 25.423 14.3471 25.423H24.0991C24.1983 25.423 24.2975 25.456 24.3636 25.5552L27.6363 28.8279C27.8347 29.0263 28.1322 29.1585 28.4297 29.1585C28.7272 29.1585 28.9917 29.0594 29.1901 28.861C29.4215 28.6627 29.5537 28.3321 29.5537 28.0346V25.6544C29.5537 25.4891 29.6529 25.3238 29.8182 25.2908C31.0413 24.8941 31.9669 23.7701 31.9669 22.4147V13.2908C32 11.6379 30.6446 10.2825 28.9917 10.2825Z" fill="#9F9FAD"/>
</g>
</g>
</svg>
